<svg xmlns="http://www.w3.org/2000/svg" width="109.48" height="80" viewBox="0 0 109.48 80">
  <g id="LUSSOロゴ" transform="translate(15.94 28.5)">
    <rect id="長方形_41" data-name="長方形 41" width="80" height="80" transform="translate(-15.94 -28.5)" fill="#061944"/>
    <path id="パス_1" data-name="パス 1" d="M71.82,43.85V56.643h7.813v-2.4H74.482V43.85Z" transform="translate(-53.631 -38.615)" fill="#fff"/>
    <path id="パス_2" data-name="パス 2" d="M107.242,56.866c3.4,0,5.476-2.2,5.476-5.924V43.85H110.09v7.313c0,1.923-.859,3.143-2.852,3.143-1.889,0-2.867-1.135-2.867-3.143V43.85H101.71v6.869c0,3.554,1.785,6.148,5.529,6.148Z" transform="translate(-74.356 -38.615)" fill="#fff"/>
    <g id="グループ_23" data-name="グループ 23" transform="translate(39.978 5.008)">
      <path id="パス_3" data-name="パス 3" d="M146.658,50.463c1.236.138,1.923.773,1.923,1.8a1.548,1.548,0,0,1-1.561,1.527,2.217,2.217,0,0,1-1.941-.929l-2.2,1.616a5.445,5.445,0,0,0,4.136,1.87,4.307,4.307,0,0,0,4.327-4.274,3.989,3.989,0,0,0-3.983-4.087c-1.358-.086-1.785-.619-1.785-1.2a1.087,1.087,0,0,1,1.184-1.135,2.1,2.1,0,0,1,1.355.635l2.094-1.527a4.346,4.346,0,0,0-3.453-1.65,3.845,3.845,0,0,0-3.762,3.692c0,2.008,1.441,3.4,3.658,3.658Z" transform="translate(-142.88 -43.11)" fill="#fff"/>
      <path id="パス_4" data-name="パス 4" d="M177.8,50.463c1.236.138,1.923.773,1.923,1.8a1.548,1.548,0,0,1-1.561,1.527,2.217,2.217,0,0,1-1.941-.929l-2.2,1.616a5.445,5.445,0,0,0,4.136,1.87,4.307,4.307,0,0,0,4.327-4.274,3.989,3.989,0,0,0-3.983-4.087c-1.358-.086-1.785-.619-1.785-1.2a1.087,1.087,0,0,1,1.184-1.135,2.1,2.1,0,0,1,1.355.635l2.094-1.527a4.346,4.346,0,0,0-3.453-1.65,3.845,3.845,0,0,0-3.762,3.692c0,2.008,1.441,3.4,3.658,3.658Z" transform="translate(-164.472 -43.11)" fill="#fff"/>
      <path id="パス_5" data-name="パス 5" d="M212.346,56.367a6.619,6.619,0,1,0-6.626-6.626A6.617,6.617,0,0,0,212.346,56.367Zm-.015-10.7a4.075,4.075,0,1,1-3.882,4.072A3.933,3.933,0,0,1,212.331,45.669Z" transform="translate(-186.451 -43.124)" fill="#fff"/>
    </g>
    <path id="パス_6" data-name="パス 6" d="M168.793,115.607c0-.123-.031-.187-.1-.2a.7.7,0,0,0-.083-.006h-.23L166.6,111.05h-.561l-1.662,4.351h-.484v.205h1.4c0-.123-.034-.187-.1-.2a.7.7,0,0,0-.083-.006h-.423l.543-1.456h1.509l.567,1.456h-.537v.205H168.8Zm-2.153-1.892h-1.328l.653-1.745.678,1.745Z" transform="translate(-117.47 -85.21)" fill="#fff"/>
    <path id="パス_7" data-name="パス 7" d="M184.081,118.326h-.255V115.26h-1.334v.2h.371l-.006,1.91a.9.9,0,0,1-.435.785.569.569,0,0,1-.23.052q-.428,0-.506-.506a1.571,1.571,0,0,1-.012-.212V115.26h-1.4v.2h.442v1.9q.014,1.233,1.085,1.239a1.143,1.143,0,0,0,1.036-.607c.015-.028.031-.058.046-.089l.04.619h1.355c0-.11-.031-.175-.1-.193a.716.716,0,0,0-.089-.006Z" transform="translate(-128.827 -88.129)" fill="#fff"/>
    <path id="パス_8" data-name="パス 8" d="M194.16,113.6h.524v1.9c0,.733.3,1.135.908,1.208.064,0,.126.006.184.006a.862.862,0,0,0,.806-.377,1.915,1.915,0,0,0,.166-.506l-.205-.025c-.1.408-.251.632-.448.672a.48.48,0,0,1-.1.006c-.187,0-.3-.129-.337-.389a1.364,1.364,0,0,1-.012-.193v-2.3h1v-.2h-1v-.874l-.966.153v.721h-.524Z" transform="translate(-138.458 -86.236)" fill="#fff"/>
    <path id="パス_9" data-name="パス 9" d="M204.5,116.626a2.275,2.275,0,0,1,.261-1.355.563.563,0,0,1,.448-.178.6.6,0,0,1,.619.5,4.125,4.125,0,0,1,.089,1.009,2.152,2.152,0,0,1-.288,1.392.634.634,0,0,1-1.036-.325,4.041,4.041,0,0,1-.1-1.043Zm.748-1.726a1.65,1.65,0,0,0-1.785,1.7,1.758,1.758,0,0,0,3.118,1.107,1.78,1.78,0,0,0,.377-1.125,1.611,1.611,0,0,0-.6-1.328,1.788,1.788,0,0,0-1.113-.353Z" transform="translate(-144.906 -87.879)" fill="#fff"/>
    <path id="パス_10" data-name="パス 10" d="M217.639,118.084H217.5l.012-1.956a.886.886,0,0,1,.389-.785.449.449,0,0,1,.2-.052c.187,0,.322.12.4.353a1.1,1.1,0,0,1,.058.371v1.674q0,.313-.147.377a.8.8,0,0,1-.193.018v.2h1.61c0-.117-.031-.178-.1-.193-.034,0-.067-.006-.1-.006h-.129v-1.993c.034-.423.169-.684.408-.785a.533.533,0,0,1,.153-.025c.218,0,.365.129.448.383a1.4,1.4,0,0,1,.046.353v1.674c0,.209-.049.334-.141.377a.8.8,0,0,1-.193.018v.2h1.732c0-.117-.034-.178-.1-.193-.031,0-.061-.006-.089-.006h-.248v-1.981a1.159,1.159,0,0,0-.491-1.055.954.954,0,0,0-.5-.141,1.188,1.188,0,0,0-1.1.7.97.97,0,0,0-.644-.678,1.326,1.326,0,0,0-.242-.025,1.127,1.127,0,0,0-1.061.665l-.04-.555H216.1v.2h.442v2.471a.34.34,0,0,1-.325.389.742.742,0,0,1-.117.006v.2h1.717c0-.117-.031-.178-.1-.193a.7.7,0,0,0-.083-.006Z" transform="translate(-153.671 -87.886)" fill="#fff"/>
    <path id="パス_11" data-name="パス 11" d="M237.366,116.626a2.276,2.276,0,0,1,.261-1.355.562.562,0,0,1,.448-.178.6.6,0,0,1,.619.5,4.125,4.125,0,0,1,.089,1.009,2.152,2.152,0,0,1-.288,1.392.634.634,0,0,1-1.036-.325,4.041,4.041,0,0,1-.1-1.043Zm.748-1.726a1.65,1.65,0,0,0-1.785,1.7,1.758,1.758,0,0,0,3.118,1.107,1.78,1.78,0,0,0,.377-1.125,1.611,1.611,0,0,0-.6-1.328,1.788,1.788,0,0,0-1.113-.353Z" transform="translate(-167.697 -87.879)" fill="#fff"/>
    <path id="パス_12" data-name="パス 12" d="M251.163,114.837a1.45,1.45,0,0,0,1.19-.561,1.934,1.934,0,0,0,.4-1.251,1.624,1.624,0,0,0-.613-1.42,1.246,1.246,0,0,0-.708-.218,1.272,1.272,0,0,0-1.174.773v-2.33H248.86v.205h.435v4.127c0,.218-.086.346-.255.383a1.105,1.105,0,0,1-.178.012v.205h1.162l.058-.53a1.263,1.263,0,0,0,1.085.607Zm-.107-3.085q.653.014.653,1.38c-.006,1-.239,1.5-.7,1.5q-.492,0-.672-.653a2.739,2.739,0,0,1-.083-.708,1.736,1.736,0,0,1,.442-1.392.583.583,0,0,1,.365-.129Z" transform="translate(-176.385 -84.364)" fill="#fff"/>
    <path id="パス_13" data-name="パス 13" d="M264.53,114.8h-.282v-3.066h-1.4v.2h.442v2.471c0,.227-.089.356-.27.383a.983.983,0,0,1-.172.012v.2h1.864c0-.117-.034-.178-.1-.193A.7.7,0,0,0,264.53,114.8Zm-.212-4.057a.584.584,0,0,0-.57-.567.53.53,0,0,0-.491.294.544.544,0,0,0-.071.276.509.509,0,0,0,.294.484.611.611,0,0,0,.27.064.526.526,0,0,0,.491-.276A.536.536,0,0,0,264.319,110.747Z" transform="translate(-186.086 -84.606)" fill="#fff"/>
    <path id="パス_14" data-name="パス 14" d="M271.735,114.554h-.383V109.82H269.8v.2h.589v4.127a.338.338,0,0,1-.248.377,1.453,1.453,0,0,1-.337.031v.2h2.116c0-.117-.031-.178-.1-.193a.7.7,0,0,0-.083-.006Z" transform="translate(-190.905 -84.357)" fill="#fff"/>
    <path id="パス_15" data-name="パス 15" d="M279.6,115.093c.322.012.488.291.491.831q0,.359-.212.442a1.346,1.346,0,0,1-.46.04l-.484-.025c.04-.837.258-1.266.665-1.285Zm1.42,2.4-.184-.064a1.126,1.126,0,0,1-1.036.7c-.4,0-.668-.258-.785-.773a4.584,4.584,0,0,1-.077-.754l.7.018c.813.025,1.285-.1,1.42-.383A.647.647,0,0,0,281.1,116a.989.989,0,0,0-.665-.944,2.2,2.2,0,0,0-.837-.153,1.62,1.62,0,0,0-1.334.583,1.757,1.757,0,0,0-.365,1.131,1.582,1.582,0,0,0,.825,1.533,1.936,1.936,0,0,0,.9.205,1.392,1.392,0,0,0,1.279-.626.922.922,0,0,0,.123-.23Z" transform="translate(-196.521 -87.879)" fill="#fff"/>
    <path id="パス_16" data-name="パス 16" d="M41.043,40.063H4.06V3.5H99.189V32.82" transform="translate(-6.649 -10.638)" fill="none" stroke="#fff" stroke-miterlimit="10" stroke-width="2"/>
  </g>
</svg>
